HIERARCHY
ROOT Hips
{
	OFFSET 0.000000 0.000000 0.000000
	CHANNELS 6 Xposition Yposition Zposition Xrotation Yrotation Zrotation
	JOINT LeftUpLeg_virtual
	{
		OFFSET 0.000000 0.000000 0.000000
		CHANNELS 3 Xrotation Yrotation Zrotation
		JOINT LeftUpLeg
		{
			OFFSET 10.205400 -3.823500 0.155100
			CHANNELS 3 Xrotation Yrotation Zrotation
			JOINT LeftLeg
			{
				OFFSET 0.708757 -12.982077 0.567790
				CHANNELS 3 Xrotation Yrotation Zrotation
				JOINT LeftFoot
				{
					OFFSET -0.708756 -10.717838 -2.184338
					CHANNELS 3 Xrotation Yrotation Zrotation
					JOINT LeftToeBase
					{
						OFFSET 0.108149 -7.191104 7.560241
						CHANNELS 3 Xrotation Yrotation Zrotation
						JOINT LeftToe_End
						{
							OFFSET 0.070230 0.081724 4.490308
							CHANNELS 3 Xrotation Yrotation Zrotation
							End Site
							{
								OFFSET 0 0 0
							}
						}
					}
				}
			}
		}
	}
	JOINT RightUpLeg_virtual
	{
		OFFSET 0.000000 0.000000 0.000000
		CHANNELS 3 Xrotation Yrotation Zrotation
		JOINT RightUpLeg
		{
			OFFSET -10.205400 -3.823500 0.005500
			CHANNELS 3 Xrotation Yrotation Zrotation
			JOINT RightLeg
			{
				OFFSET -0.708756 -12.982134 0.610632
				CHANNELS 3 Xrotation Yrotation Zrotation
				JOINT RightFoot
				{
					OFFSET 0.708754 -10.717769 -1.945823
					CHANNELS 3 Xrotation Yrotation Zrotation
					JOINT RightToeBase
					{
						OFFSET -0.108140 -7.191069 7.372968
						CHANNELS 3 Xrotation Yrotation Zrotation
						JOINT RightToe_End
						{
							OFFSET -0.070227 0.081735 4.479403
							CHANNELS 3 Xrotation Yrotation Zrotation
							End Site
							{
								OFFSET 0 0 0
							}
						}
					}
				}
			}
		}
	}
	JOINT Spine_virtual
	{
		OFFSET 0.000000 0.000000 0.000000
		CHANNELS 3 Xrotation Yrotation Zrotation
		JOINT Spine
		{
			OFFSET 0.000000 6.876099 0.125700
			CHANNELS 3 Xrotation Yrotation Zrotation
			JOINT Spine1
			{
				OFFSET 0.000000 5.730043 0.104720
				CHANNELS 3 Xrotation Yrotation Zrotation
				JOINT Spine1_split
				{
					OFFSET 0.000000 5.730043 0.104720
					CHANNELS 3 Xrotation Yrotation Zrotation
					JOINT Spine2
					{
						OFFSET 0.000000 5.730043 0.104720
						CHANNELS 3 Xrotation Yrotation Zrotation
						JOINT Neck_virtual
						{
							OFFSET 0.000000 0.000000 0.000000
							CHANNELS 3 Xrotation Yrotation Zrotation
							JOINT Neck
							{
								OFFSET 0.000000 10.314075 0.188496
								CHANNELS 3 Xrotation Yrotation Zrotation
								JOINT Head
								{
									OFFSET 0.000000 7.643700 -2.377400
									CHANNELS 3 Xrotation Yrotation Zrotation
									JOINT HeadTop_End
									{
										OFFSET 0.000000 43.788605 -13.619600
										CHANNELS 3 Xrotation Yrotation Zrotation
										End Site
										{
											OFFSET 0 0 0
										}
									}
								}
							}
						}
						JOINT LeftShoulder_virtual
						{
							OFFSET 0.000000 0.000000 0.000000
							CHANNELS 3 Xrotation Yrotation Zrotation
							JOINT LeftShoulder
							{
								OFFSET 2.196100 4.412489 0.087492
								CHANNELS 3 Xrotation Yrotation Zrotation
								JOINT LeftShoulder_split
								{
									OFFSET 2.196100 4.412489 0.087492
									CHANNELS 3 Xrotation Yrotation Zrotation
									JOINT LeftArm
									{
										OFFSET 8.771219 -2.981674 -0.026999
										CHANNELS 3 Xrotation Yrotation Zrotation
										JOINT LeftForeArm
										{
											OFFSET 8.512804 0.000000 -0.000000
											CHANNELS 3 Xrotation Yrotation Zrotation
											JOINT LeftHand
											{
												OFFSET 18.484802 0.000000 -0.000000
												CHANNELS 3 Xrotation Yrotation Zrotation
												End Site
												{
													OFFSET 0 0 0
												}
											}
										}
									}
								}
							}
						}
						JOINT RightShoulder_virtual
						{
							OFFSET 0.000000 0.000000 0.000000
							CHANNELS 3 Xrotation Yrotation Zrotation
							JOINT RightShoulder
							{
								OFFSET -2.196100 4.412496 0.070690
								CHANNELS 3 Xrotation Yrotation Zrotation
								JOINT RightShoulder_split
								{
									OFFSET -2.196100 4.412496 0.070690
									CHANNELS 3 Xrotation Yrotation Zrotation
									JOINT RightArm
									{
										OFFSET -8.771282 -2.981682 -0.094208
										CHANNELS 3 Xrotation Yrotation Zrotation
										JOINT RightForeArm
										{
											OFFSET -8.494598 0.000000 0.000000
											CHANNELS 3 Xrotation Yrotation Zrotation
											JOINT RightHand
											{
												OFFSET -18.483803 0.000000 0.000001
												CHANNELS 3 Xrotation Yrotation Zrotation
												End Site
												{
													OFFSET 0 0 0
												}
											}
										}
									}
								}
							}
						}
					}
				}
			}
		}
	}
}
MOTION
Frames: 8
Frame Time: 0.03333333
2.012815 16.466255 -6.964590 0.000000 0.000000 0.000000 27.767849 -2.698183 3.945719 -94.755679 -17.844025 32.098109 129.344891 -16.909100 -9.790116 -24.706222 -16.553792 -4.072041 -32.446578 -2.007850 0.371443 0.000000 0.000000 0.000000 30.101337 -2.493059 3.519123 -79.965013 -12.367564 -15.396390 132.663543 21.274750 -8.552196 -63.550218 13.370285 -25.340782 -36.839179 -2.515957 -3.097995 0.000000 0.000000 0.000000 29.060727 -2.340661 2.366960 9.648725 1.779239 -2.611699 24.574887 2.011687 -5.073789 1.746851 -0.379911 0.839184 0.000000 0.000000 0.000000 23.780205 1.991160 -4.860189 -26.218841 -5.693069 1.469788 -27.583338 -8.099981 2.587444 0.000000 0.000000 0.000000 22.808064 2.321148 -5.299980 2.141263 -2.768800 1.296275 0.762658 -6.285631 0.713957 -21.763107 -28.111693 -23.031623 -148.991493 -82.078656 -149.385854 0.000000 0.000000 0.000000 23.752857 2.100522 -5.452478 7.360865 29.593082 8.033182 1.103818 3.504952 -2.229529 -35.662033 5.970517 27.614241 10.051804 72.576408 -20.975572 0.000000 0.000000 0.000000 
2.543997 15.155643 -7.662529 0.000000 0.000000 0.000000 30.851661 -0.432670 4.443713 -86.845350 -23.093139 40.236470 133.706226 -24.075500 -8.504842 -31.139929 -17.464174 -11.271479 -41.112442 -2.827055 1.475959 0.000000 0.000000 0.000000 32.905597 -0.936621 4.071781 -91.200326 0.084892 -22.898974 136.064239 22.925612 -5.342937 -58.836889 9.383153 -22.402527 -38.043542 -1.908045 -2.774231 0.000000 0.000000 0.000000 32.889820 0.161120 2.658435 8.885826 1.098350 -2.452261 22.640014 1.723875 -4.279820 1.641239 -0.152412 1.156294 0.000000 0.000000 0.000000 21.738653 1.584370 -4.174045 -21.902957 -5.499067 0.861752 -29.287745 -9.049894 1.985209 0.000000 0.000000 0.000000 20.833909 1.929511 -4.420340 1.723154 -2.914126 -0.278029 0.615009 -5.580700 0.385070 -19.895089 -32.913415 -21.980199 -156.478131 -81.852345 -158.167073 0.000000 0.000000 0.000000 21.661636 1.539695 -4.753372 7.150665 31.610122 10.711618 0.989842 3.259545 -1.956099 -38.071693 11.303786 25.283641 6.499537 66.569933 -15.748203 0.000000 0.000000 0.000000 
2.984186 14.259309 -8.304836 0.000000 0.000000 0.000000 33.405178 1.252319 4.813253 -77.239003 -27.178209 48.985379 133.378309 -30.874006 -8.733353 -35.878393 -17.455628 -18.308066 -45.094924 -2.782578 0.959353 0.000000 0.000000 0.000000 35.170085 -0.197496 4.753509 -98.898769 12.811224 -29.180105 137.514548 25.867530 -2.337207 -50.732227 5.282888 -16.973391 -39.762657 -0.948566 -2.752204 0.000000 0.000000 0.000000 36.078651 2.011349 3.024503 8.290233 0.096820 -2.375149 20.458939 1.410622 -3.311760 1.172715 0.103696 1.542995 0.000000 0.000000 0.000000 19.551466 1.151961 -3.325239 -17.968722 -5.256986 0.297001 -30.774117 -9.537458 1.616156 0.000000 0.000000 0.000000 18.795482 1.471269 -3.426881 1.247353 -2.716078 -2.245850 0.090739 -4.492815 -0.354633 -17.353303 -37.567816 -22.767558 -158.548990 -83.928688 -161.322101 0.000000 0.000000 0.000000 19.424657 0.994390 -3.825157 6.879460 32.670017 13.301286 0.430994 2.997633 -1.378273 -39.904250 14.814656 24.236839 4.507585 61.554088 -11.909281 0.000000 0.000000 0.000000 
3.269295 13.701571 -8.702883 0.000000 0.000000 0.000000 35.309623 2.209653 4.976788 -67.862055 -29.771422 57.354792 129.746110 -36.698781 -11.150727 -39.092103 -16.380739 -23.753472 -45.177894 -1.926300 -0.780527 0.000000 0.000000 0.000000 36.785647 -0.342396 5.388673 -102.622055 23.280949 -34.597343 137.972963 29.403428 0.561383 -42.080792 2.543927 -10.325523 -40.480626 0.148783 -2.834110 0.000000 0.000000 0.000000 38.170061 3.104355 3.471184 8.077286 -1.048198 -2.376128 18.402287 1.077663 -2.378288 0.886404 -0.185740 1.688050 0.000000 0.000000 0.000000 17.580550 0.739207 -2.484328 -14.911104 -5.004789 -0.105680 -31.984823 -9.707156 1.619082 0.000000 0.000000 0.000000 17.054474 0.951758 -2.526328 0.753904 -2.336637 -4.251932 -0.825476 -3.023204 -1.222948 -14.856054 -41.137410 -24.812079 -153.840408 -87.549037 -157.380345 0.000000 0.000000 0.000000 17.422619 0.498306 -2.851818 6.679830 32.885162 15.385102 -0.250416 2.571422 -0.481660 -41.367980 16.535779 24.060463 3.291221 58.259307 -8.856443 0.000000 0.000000 0.000000 
3.335059 13.361374 -8.847939 0.000000 0.000000 0.000000 36.442194 2.256185 5.063828 -60.382123 -30.727730 64.676810 124.627853 -40.644875 -15.813681 -41.632762 -15.311554 -25.351412 -45.220613 -1.188148 -2.352552 0.000000 0.000000 0.000000 37.828187 -1.110092 5.865059 -102.844726 30.385504 -39.768350 138.346547 32.877286 3.569129 -35.621605 1.649987 -5.398849 -39.736555 1.125590 -2.826590 0.000000 0.000000 0.000000 39.160149 3.858431 3.799421 8.280278 -2.139042 -2.373932 16.785827 0.732749 -1.640634 0.695633 -0.961629 1.627561 0.000000 0.000000 0.000000 16.117904 0.400296 -1.819957 -12.884099 -4.823952 -0.276546 -32.948344 -9.587287 2.014188 0.000000 0.000000 0.000000 15.834890 0.465753 -1.849770 0.298495 -1.877886 -6.010612 -1.996951 -1.582758 -2.052461 -13.052480 -43.315154 -27.437215 0.734190 -88.472861 -3.201746 0.000000 0.000000 0.000000 15.906911 0.111076 -2.026346 6.692407 32.348773 16.616254 -0.556365 2.384166 0.548152 -42.614144 17.112002 24.113057 2.404501 56.668976 -6.300609 0.000000 0.000000 0.000000 
3.222884 13.196142 -8.878674 0.000000 0.000000 0.000000 36.839366 1.362548 5.120942 -55.661192 -30.347398 70.255906 120.523387 -42.745629 -20.923380 -43.714293 -15.153495 -23.412256 -47.720128 -1.113360 -2.685160 0.000000 0.000000 0.000000 38.187007 -2.226653 6.053157 -100.682917 34.281293 -44.789379 139.117484 35.851789 6.493370 -32.153597 1.791570 -3.436418 -37.814693 1.852938 -2.656532 0.000000 0.000000 0.000000 39.155497 4.224979 3.943499 8.857832 -3.041478 -2.324014 15.761341 0.427739 -1.198823 0.625556 -2.234787 1.587401 0.000000 0.000000 0.000000 15.231091 0.189746 -1.434286 -11.829519 -4.694619 -0.264353 -33.708732 -9.172243 2.702213 0.000000 0.000000 0.000000 15.207087 0.073928 -1.454848 -0.094243 -1.525636 -7.194611 -3.298599 -0.323234 -2.698549 -12.368562 -43.813802 -29.999485 12.339650 -85.802038 8.386177 0.000000 0.000000 0.000000 14.980534 -0.142874 -1.457544 6.879592 31.471189 17.099160 -0.537728 2.848680 1.508837 -43.734080 17.470432 23.995377 1.668880 55.920832 -4.169491 0.000000 0.000000 0.000000 
3.051686 13.187385 -8.727865 0.000000 0.000000 0.000000 36.922275 0.012817 5.205052 -53.454737 -29.475569 73.848306 119.738544 -43.919305 -23.915689 -45.348351 -15.794036 -20.066643 -50.584258 -1.366540 -2.644669 0.000000 0.000000 0.000000 38.153307 -3.048860 5.952986 -97.511886 36.041153 -49.050433 139.954333 38.486094 8.591915 -31.090417 2.530541 -3.325467 -36.597103 2.345654 -2.504470 0.000000 0.000000 0.000000 38.665913 4.324269 3.912585 9.615345 -3.634822 -2.199227 15.314788 0.176098 -1.009221 0.993452 -3.511052 1.587188 0.000000 0.000000 0.000000 14.861976 0.082353 -1.319364 -11.423193 -4.649677 -0.164168 -34.275593 -8.560966 3.526271 0.000000 0.000000 0.000000 15.057492 -0.197979 -1.276795 -0.417667 -1.256494 -7.789784 -4.382512 0.312530 -2.999881 -12.570079 -43.072467 -32.164918 18.025515 -85.053627 14.332218 0.000000 0.000000 0.000000 14.577430 -0.282614 -1.149264 7.092201 30.495449 17.059584 -0.342724 4.041134 2.352809 -44.736312 18.244369 23.751264 1.082378 55.275211 -2.499107 0.000000 0.000000 0.000000 
2.922077 13.350481 -8.539314 0.000000 0.000000 0.000000 36.885255 -0.941231 5.124165 -53.093297 -28.562055 75.424918 121.066729 -44.878998 -24.986767 -46.865623 -16.532152 -17.048229 -51.542561 -1.522239 -2.830606 0.000000 0.000000 0.000000 38.152696 -2.828602 5.468370 -94.119891 36.909796 -52.184927 140.603597 40.911450 9.436727 -31.152411 3.621144 -3.770599 -36.874644 2.585053 -2.548775 0.000000 0.000000 0.000000 38.058750 4.020816 3.862672 10.228841 -3.912059 -2.028671 15.329414 0.001150 -0.983845 1.275722 -4.196308 1.523166 0.000000 0.000000 0.000000 14.799072 0.054422 -1.427681 -11.239195 -4.717535 -0.195309 -34.518328 -7.807396 4.315291 0.000000 0.000000 0.000000 15.266549 -0.342392 -1.177751 -0.661935 -0.962939 -7.919243 -5.257924 0.373118 -3.077730 -12.939703 -41.758411 -33.762605 28.705858 -86.022408 25.474275 0.000000 0.000000 0.000000 14.500613 -0.335120 -1.041043 7.192181 29.596354 16.864145 -0.300033 5.589306 3.043331 -45.481758 19.486840 23.430247 0.690669 54.653859 -1.329066 0.000000 0.000000 0.000000 
